<?xml version="1.0" encoding="UTF-8"?>
<svg id="Layer_2" data-name="Layer 2" xmlns="http://www.w3.org/2000/svg" viewBox="0 0 259.1 443.84">
  <defs>
    <style>
      .cls-1 {
        fill: #1e1e1e;
      }
    </style>
  </defs>
  <g id="Layer_1-2" data-name="Layer 1">
    <g>
      <path class="cls-1" d="M119.47,258.85c-2.31-12.23-1.43-19.63-3.28-29.92-1.11-6.17-3.13-11.9-4.59-18-1.7-7.09-2.76-14.09-3.91-21.21l-2.65-16.35c-.85-5.26,1-10.88,5.09-14.2,14.48-11.74,2.93-18.54,6.9-30.74,2.23-6.85-.64-13.31,4.3-20.98,2.13-3.31,5.72-4.89,8.83-7.14,3.54-2.56,7.14-4.5,10.95-6.56,9.84-5.3,20.34-5.83,30.77-1.68,18.63,7.42,23.77,12,35.62,28.5,3.27,4.55,5.18,8.76,6.68,11.92,9.47,19.94,22.55,60.3,24.13,65.21,2.78,6.18,3.52,12.98,4.8,19.58,4.23,7.97,3.69,14.83,5.9,20.75,1.35,3.62,2.5,6.93,1.59,10.87l7.86,43.35c.56,4.81.65,8.7.64,11.25-.06,12.42-2.64,18.55-3.86,34.36-.28,3.56-.39,6.45-.45,8.2l-.88,22.77c-1.9,12.19-4.46,22.21-6.64,29.55-7.73,26.09-15.28,34.16-19.33,37.71-6.3,5.52-11.84,6.9-13.59,7.22-9.58,1.76-17.47-1-24.57-7.03-6.87-5.83-14.05-10.87-20.01-17.8-3.48-4.05-5.67-8.96-8.78-13.13-5.73-7.7-8.2-15.49-9.44-25.07-.74-5.69-4.12-11.59-6.77-16.68-4.35-8.37-6.29-16.51-8.47-25.51-3.46-14.32-14.44-37.63-15.16-53.01-.61-13.07.86-12.81-1.68-26.24Z"/>
      <path class="cls-1" d="M3.38,97.83C2.19,93.34.03,89.23,0,84.78c-.04-5.94,1.87-11.25,3.37-16.97,1.24-4.71-3.21-11.28.51-16.38-1.49-6.14-1.11-12.28-1.34-18.52-.17-4.58-.32-8.44,1.49-12.77s3.17-8.67,6.34-12.01l5.69-5.99C17.37.76,21.36-.16,23.4.02c9.47.87,18.48,1.72,27.76,3.53,4.26.83,7.88,4.18,11.93,5.54,3.73,1.25,7.29,2.33,11.08,3.36,2.52.69,5.38,1.06,7.58,2.3,9.97,5.63,11.36,20.3,13.82,30.36,1.85,7.56,2.03,13.93.34,21.43-.81,3.61-.56,8.14-1.1,11.92-.75,5.27-2.65,9.23-5.03,13.82-2.1,4.03-3.62,8.17-6.25,12.08-1.9,2.82-4.01,6.23-5.21,9.23,3.62,15.47,2.07,12.47.33,24.8-1.34,9.53-7.24,16.69-15.58,20.83-6.14,3.05-11.36,3.12-17.69,1.84-14.25-2.89-25.24-12.87-28.35-27.44-4.38-20.57-9.53-20.4-13.64-35.79Z"/>
    </g>
  </g>
</svg>