<?xml version="1.0" encoding="UTF-8"?>
<svg id="Layer_2" data-name="Layer 2" xmlns="http://www.w3.org/2000/svg" viewBox="0 0 358.86 135.4">
  <defs>
    <style>
      .cls-1 {
        fill: #1e1e1e;
      }
    </style>
  </defs>
  <g id="Layer_1-2" data-name="Layer 1">
    <path class="cls-1" d="M160.11,131.81c-12.45.03-19.56-2.2-30.01-2.27-6.27-.04-12.27.89-18.54,1.2-7.28.36-14.35.12-21.57-.05l-16.56-.4c-5.33-.13-10.52-2.98-13.02-7.61-8.88-16.39-17.68-6.28-28.95-12.43-6.32-3.45-13.2-1.82-19.83-8.08-2.86-2.7-3.76-6.52-5.39-9.99-1.86-3.95-3.11-7.85-4.43-11.97-3.4-10.64-2-21.07,4-30.56,10.71-16.95,16.17-21.17,34.56-29.78,5.08-2.38,9.56-3.48,12.94-4.38,21.34-5.65,63.41-11.09,68.53-11.74,6.59-1.59,13.41-1.08,20.13-1.12,8.61-2.69,15.25-.91,21.48-1.99,3.81-.66,7.27-1.18,10.98.44l44.06.24c4.83.33,8.67.96,11.17,1.44,12.2,2.34,17.75,6,33.07,10.11,3.45.93,6.27,1.57,7.98,1.95l22.22,5.05c11.64,4.11,21.02,8.47,27.83,11.95,24.23,12.4,30.77,21.3,33.52,25.93,4.27,7.2,4.6,12.9,4.6,14.69-.03,9.74-4.19,16.98-11.43,22.86-6.99,5.69-13.27,11.82-21.17,16.4-4.62,2.68-9.85,3.93-14.51,6.22-8.62,4.22-16.73,5.22-26.38,4.68-5.73-.32-12.15,1.92-17.63,3.59-9.02,2.74-17.38,3.15-26.63,3.64-14.71.77-39.64,7.28-54.9,5.16-12.96-1.8-12.44-3.19-26.1-3.17Z"/>
  </g>
</svg>