<?xml version="1.0" encoding="UTF-8"?>
<svg id="Layer_2" data-name="Layer 2" xmlns="http://www.w3.org/2000/svg" viewBox="0 0 375.91 216.79">
  <defs>
    <style>
      .cls-1 {
        fill: #1e1e1e;
      }
    </style>
  </defs>
  <g id="Layer_1-2" data-name="Layer 1">
    <path class="cls-1" d="M187.67,216.77c-13.54.3-26.77-2.41-37.55-10.28-5.03-3.68-8.86-8.52-13.67-12.41-3.12-2.52-4.41-4.09-4.8-4.5-8.77-9.51-11.16-25.66-12.17-22.79-1.32,3.74-3.23,11.63-7.94,18.9-6.57,10.15-17.96,14.34-26.32,16.3-4.85,3.71-10.85,6.1-16.61,8.03-6.35,2.13-12.92.69-19.24-.25-11.21-1.67-17.12-8.23-23.12-17.28-2.1-3.17-3.8-6.6-5.12-10.17l-5.04-13.66c-1.35-3.65-3.15-7.11-4.85-10.65-2.01-4.19-4.48-8.13-7.14-11.93-6.68-9.52-4.36-21.39.89-31.13l9.98-18.47c4.68-8.67,8.89-17.16,13.09-26.14,1.48-3.17,3.6-6.3,6.24-8.22,3.29-2.39,7.14-1.63,10.82-1.56,4.27.08,10.4.63,16.96,3.96,10.49,5.32,7.84,11,18.57,17.66,7.11,4.41,10.3,3.18,18.01,8.76,4.5,3.26,7.61,6.72,9.53,9.15l9.28,17.43c1,3.65,1.82,8.01,2.16,12.97.16,2.26.61,2.3,1.01,8.92,2.41-6.56,3.47-22.41,6.44-31.1l13.07-24.54c4.42-8.29,10-15.54,16.1-22.63,3.24-3.76,5.66-7.68,8.45-11.75l10.88-15.84c2.42-3.52,5.3-6.8,7.39-10.47,3.02-5.28,7.13-8.38,12.05-11.61,7.76-5.1,15.86-9.13,25.05-10.99,5.93-1.2,10.9-.07,16.36,2.35,5.08,2.25,10.69,3.64,15.46,6.33,7.58,4.27,10.97,11.55,10.93,19.84-.03,6.38-1.53,11.49-5.66,16.45-2.21,2.66-3.77,6.52-5.3,9.7-1.87,3.9-1.71,7.98-.54,11.98,1.29,4.36,2.37,8.81,3.06,13.26.83,5.38,3.31,9.3,5.67,14.02,4.18,8.35,9.39,26.19,5.6,35.04l-4.66,10.88c4.77-3.46,9.38-5.91,14.69-7.86l22.34-8.21c14.04-5.16,28.59-8.99,43.68-8.4,7.12.28,13.18,4.61,18.88,8.13,6.7,4.14,11.17,10.28,12.72,18.04.99,4.95,1.83,10.05,2.45,15.01.81,6.43-2.01,11.11-7.3,14.45-4.31,2.72-1.69,10.85-9.49,16.67-1.76,1.31-4.48,3.83-5.24,5.72-3.06,7.57-9.55,9.21-15.88,12.4-11.34,5.71-22.35,8.66-35.45,7.82l-15.65-.99c-6.08-.39-10.5-2.19-15.66-4.91-7.2-3.8-10.47-6.05-12.72-8.13-1.77-1.63-3.73-3.33-5.67-6.14-.73-1.06-2.7-4.06-4.39-9.77-1.12-3.8-2.46-9.93-2.16-17.89l-8.81,14.53c-3.07,5.06-6.86,9.3-10.82,13.73-10.77,12.06-20.77,21.85-38.86,22.26Z"/>
  </g>
</svg>