<?xml version="1.0" encoding="UTF-8"?>
<svg id="Layer_2" data-name="Layer 2" xmlns="http://www.w3.org/2000/svg" viewBox="0 0 165.21 102.64">
  <defs>
    <style>
      .cls-1 {
        fill: #1e1e1e;
      }
    </style>
  </defs>
  <g id="Layer_1-2" data-name="Layer 1">
    <path class="cls-1" d="M91.1,101.93c-4.64.14-9.14,1.3-13.48.31-5.8-1.32-10.53-4.39-15.75-7.16-4.3-2.29-11.72.55-15.83-4.24-6.32.05-12.21-1.73-18.34-2.93-4.5-.88-8.29-1.61-12.09-4.36s-7.72-5.07-10.25-8.92l-4.53-6.91c-1.04-1.59-1.04-5.68-.38-7.64,3.01-9.02,5.9-17.6,9.77-26.22,1.78-3.96,5.87-6.71,8.12-10.35,2.06-3.35,3.93-6.57,5.8-10.02,1.24-2.29,2.26-5,3.97-6.86C35.87-1.76,50.48.24,60.83.14c7.79-.07,14.02,1.2,20.94,4.56,3.33,1.62,7.8,2.41,11.36,3.8,4.96,1.94,8.38,4.68,12.3,8.06,3.45,2.97,7.13,5.39,10.33,8.85,2.31,2.5,5.15,5.33,7.8,7.19,15.88,0,12.61.84,24.22,5.34,8.97,3.48,14.6,10.86,16.72,19.93,1.56,6.67.45,11.77-2.25,17.65-6.07,13.21-18.3,21.64-33.19,21.33-21.03-.43-22.04,4.62-37.96,5.1Z"/>
  </g>
</svg>